<?xml version="1.0" standalone="no"?>
<!DOCTYPE svg PUBLIC "-//W3C//DTD SVG 20010904//EN"
 "http://www.w3.org/TR/2001/REC-SVG-20010904/DTD/svg10.dtd">
<svg version="1.0" xmlns="http://www.w3.org/2000/svg"
 width="336.000000pt" height="336.000000pt" viewBox="0 0 336.000000 336.000000"
 preserveAspectRatio="xMidYMid meet">
<metadata>
Created by potrace 1.14, written by Peter Selinger 2001-2017
</metadata>
<g transform="translate(0.000000,336.000000) scale(0.100000,-0.100000)"
fill="#000000" stroke="none">
<path d="M174 3345 c3 -8 321 -408 706 -889 l701 -875 -703 -781 c-387 -429
-705 -785 -706 -790 -2 -6 76 -10 212 -10 l215 0 853 947 c469 521 1052 1168
1295 1437 l442 491 1 238 c0 151 -4 237 -10 235 -5 -1 -309 -336 -676 -743
-366 -407 -674 -748 -684 -759 -17 -18 -36 4 -631 748 l-613 766 -204 0 c-177
0 -203 -2 -198 -15z"/>
<path d="M3160 2541 c-14 -16 -74 -82 -135 -146 -60 -65 -115 -123 -120 -129
-26 -28 -192 -214 -214 -240 -14 -16 -45 -49 -69 -75 -24 -25 -47 -51 -50 -57
-4 -6 -29 -36 -57 -66 -27 -30 -81 -90 -120 -134 -38 -43 -85 -94 -102 -112
-18 -19 -33 -36 -33 -39 0 -3 -24 -29 -54 -59 -29 -30 -51 -54 -49 -54 2 0 -2
-6 -9 -13 -18 -19 -157 -174 -188 -210 -14 -16 -34 -39 -45 -51 -11 -11 -52
-57 -90 -100 -39 -44 -81 -92 -95 -106 -14 -15 -40 -45 -59 -66 -63 -73 -166
-188 -202 -226 -21 -21 -40 -45 -43 -54 -3 -8 -10 -12 -16 -9 -5 3 -10 0 -10
-7 0 -7 -20 -34 -43 -59 -23 -25 -71 -78 -107 -119 -36 -40 -86 -96 -112 -124
-26 -28 -56 -63 -68 -76 -30 -35 -133 -151 -145 -164 -45 -48 -54 -46 169 -46
187 0 208 2 224 18 9 11 49 54 87 98 39 43 86 95 105 115 19 20 37 40 40 45 3
5 9 8 13 6 5 -1 6 1 3 6 -2 4 29 43 69 86 41 44 76 82 77 86 2 4 39 47 84 96
45 49 125 139 179 199 127 142 126 141 182 204 26 30 64 72 83 93 19 20 53 59
75 84 22 26 63 71 91 101 27 29 48 53 45 53 -3 0 16 21 42 46 26 25 47 48 47
52 0 4 18 25 39 47 22 22 77 83 123 135 45 52 105 119 133 148 l50 53 -1 -886
0 -885 153 0 153 0 0 1285 c0 707 -1 1285 -2 1285 -2 0 -14 -13 -28 -29z"/>
</g>
</svg>
